<mxfile host="app.diagrams.net" agent="Mozilla/5.0 (Windows NT 10.0; Win64; x64) AppleWebKit/537.36 (KHTML, like Gecko) Chrome/137.0.0.0 Safari/537.36" version="27.1.6" pages="4">
  <diagram name="Página-1" id="Nofakx_FAN60NuZkb5IB">
    <mxGraphModel dx="872" dy="1640" grid="1" gridSize="10" guides="1" tooltips="1" connect="1" arrows="1" fold="1" page="1" pageScale="1" pageWidth="827" pageHeight="1169" math="0" shadow="0">
      <root>
        <mxCell id="0" />
        <mxCell id="1" parent="0" />
        <mxCell id="--wnBnnWqUvRCD4Y-Vol-1" value="" style="rounded=1;whiteSpace=wrap;html=1;" vertex="1" parent="1">
          <mxGeometry x="309" y="-20" width="301" height="520" as="geometry" />
        </mxCell>
        <mxCell id="H0gQp8Y4YWYqzka2YyTl-1" value="Trabajador" style="shape=umlActor;verticalLabelPosition=bottom;verticalAlign=top;html=1;" parent="1" vertex="1">
          <mxGeometry x="120" y="120" width="30" height="60" as="geometry" />
        </mxCell>
        <mxCell id="H0gQp8Y4YWYqzka2YyTl-2" value="Administrador" style="shape=umlActor;verticalLabelPosition=bottom;verticalAlign=top;html=1;" parent="1" vertex="1">
          <mxGeometry x="120" y="260" width="30" height="60" as="geometry" />
        </mxCell>
        <mxCell id="H0gQp8Y4YWYqzka2YyTl-6" value="Usuario" style="shape=umlActor;verticalLabelPosition=bottom;verticalAlign=top;html=1;" parent="1" vertex="1">
          <mxGeometry x="230" y="200" width="30" height="60" as="geometry" />
        </mxCell>
        <mxCell id="H0gQp8Y4YWYqzka2YyTl-7" value="Iniciar sesión" style="ellipse;whiteSpace=wrap;html=1;" parent="1" vertex="1">
          <mxGeometry x="394" y="70" width="140" height="70" as="geometry" />
        </mxCell>
        <mxCell id="H0gQp8Y4YWYqzka2YyTl-8" value="Ver reservas del día" style="ellipse;whiteSpace=wrap;html=1;" parent="1" vertex="1">
          <mxGeometry x="390" y="150" width="140" height="70" as="geometry" />
        </mxCell>
        <mxCell id="H0gQp8Y4YWYqzka2YyTl-9" value="Reservar cancha" style="ellipse;whiteSpace=wrap;html=1;" parent="1" vertex="1">
          <mxGeometry x="390" y="230" width="140" height="70" as="geometry" />
        </mxCell>
        <mxCell id="H0gQp8Y4YWYqzka2YyTl-10" value="Revisar ingresos del dia" style="ellipse;whiteSpace=wrap;html=1;" parent="1" vertex="1">
          <mxGeometry x="394" y="310" width="140" height="70" as="geometry" />
        </mxCell>
        <mxCell id="H0gQp8Y4YWYqzka2YyTl-11" value="ver ganancias por cancha" style="ellipse;whiteSpace=wrap;html=1;" parent="1" vertex="1">
          <mxGeometry x="394" y="390" width="140" height="70" as="geometry" />
        </mxCell>
        <mxCell id="H0gQp8Y4YWYqzka2YyTl-16" value="" style="endArrow=none;endFill=1;endSize=12;html=1;rounded=0;exitX=1;exitY=0.3333333333333333;exitDx=0;exitDy=0;exitPerimeter=0;entryX=0;entryY=0.5;entryDx=0;entryDy=0;startFill=0;curved=1;strokeColor=default;" parent="1" source="H0gQp8Y4YWYqzka2YyTl-6" target="H0gQp8Y4YWYqzka2YyTl-7" edge="1">
          <mxGeometry width="160" relative="1" as="geometry">
            <mxPoint x="310" y="265" as="sourcePoint" />
            <mxPoint x="500" y="100" as="targetPoint" />
            <Array as="points">
              <mxPoint x="300" y="140" />
            </Array>
          </mxGeometry>
        </mxCell>
        <mxCell id="H0gQp8Y4YWYqzka2YyTl-17" value="" style="endArrow=none;endFill=1;endSize=12;html=1;rounded=0;exitX=1;exitY=0.3333333333333333;exitDx=0;exitDy=0;exitPerimeter=0;entryX=0;entryY=0.5;entryDx=0;entryDy=0;startFill=0;curved=1;strokeColor=default;" parent="1" source="H0gQp8Y4YWYqzka2YyTl-6" target="H0gQp8Y4YWYqzka2YyTl-8" edge="1">
          <mxGeometry width="160" relative="1" as="geometry">
            <mxPoint x="580" y="220" as="sourcePoint" />
            <mxPoint x="664" y="105" as="targetPoint" />
            <Array as="points">
              <mxPoint x="310" y="185" />
            </Array>
          </mxGeometry>
        </mxCell>
        <mxCell id="H0gQp8Y4YWYqzka2YyTl-18" value="" style="endArrow=none;endFill=1;endSize=12;html=1;rounded=0;exitX=1;exitY=0.3333333333333333;exitDx=0;exitDy=0;exitPerimeter=0;entryX=0;entryY=0.5;entryDx=0;entryDy=0;startFill=0;curved=1;strokeColor=default;" parent="1" source="H0gQp8Y4YWYqzka2YyTl-6" target="H0gQp8Y4YWYqzka2YyTl-9" edge="1">
          <mxGeometry width="160" relative="1" as="geometry">
            <mxPoint x="520" y="230" as="sourcePoint" />
            <mxPoint x="600" y="195" as="targetPoint" />
            <Array as="points">
              <mxPoint x="310" y="240" />
            </Array>
          </mxGeometry>
        </mxCell>
        <mxCell id="H0gQp8Y4YWYqzka2YyTl-19" value="" style="endArrow=none;endFill=1;endSize=12;html=1;rounded=0;exitX=1;exitY=0.3333333333333333;exitDx=0;exitDy=0;exitPerimeter=0;entryX=0;entryY=0.5;entryDx=0;entryDy=0;startFill=0;curved=1;strokeColor=default;" parent="1" source="H0gQp8Y4YWYqzka2YyTl-6" target="H0gQp8Y4YWYqzka2YyTl-10" edge="1">
          <mxGeometry width="160" relative="1" as="geometry">
            <mxPoint x="210" y="350" as="sourcePoint" />
            <mxPoint x="290" y="315" as="targetPoint" />
            <Array as="points" />
          </mxGeometry>
        </mxCell>
        <mxCell id="H0gQp8Y4YWYqzka2YyTl-20" value="" style="endArrow=none;endFill=1;endSize=12;html=1;rounded=0;exitX=1;exitY=0.3333333333333333;exitDx=0;exitDy=0;exitPerimeter=0;entryX=0;entryY=0.5;entryDx=0;entryDy=0;startFill=0;curved=1;strokeColor=default;" parent="1" source="H0gQp8Y4YWYqzka2YyTl-2" target="H0gQp8Y4YWYqzka2YyTl-11" edge="1">
          <mxGeometry width="160" relative="1" as="geometry">
            <mxPoint x="160" y="420" as="sourcePoint" />
            <mxPoint x="240" y="385" as="targetPoint" />
            <Array as="points">
              <mxPoint x="230" y="350" />
            </Array>
          </mxGeometry>
        </mxCell>
        <mxCell id="H0gQp8Y4YWYqzka2YyTl-21" style="edgeStyle=orthogonalEdgeStyle;rounded=0;orthogonalLoop=1;jettySize=auto;html=1;entryX=0.5;entryY=0.5;entryDx=0;entryDy=0;entryPerimeter=0;endArrow=block;endFill=0;" parent="1" source="H0gQp8Y4YWYqzka2YyTl-1" target="H0gQp8Y4YWYqzka2YyTl-6" edge="1">
          <mxGeometry relative="1" as="geometry">
            <Array as="points">
              <mxPoint x="190" y="150" />
              <mxPoint x="190" y="230" />
            </Array>
          </mxGeometry>
        </mxCell>
        <mxCell id="H0gQp8Y4YWYqzka2YyTl-22" style="edgeStyle=orthogonalEdgeStyle;rounded=0;orthogonalLoop=1;jettySize=auto;html=1;entryX=0.5;entryY=0.5;entryDx=0;entryDy=0;entryPerimeter=0;endArrow=block;endFill=0;" parent="1" source="H0gQp8Y4YWYqzka2YyTl-2" target="H0gQp8Y4YWYqzka2YyTl-6" edge="1">
          <mxGeometry relative="1" as="geometry" />
        </mxCell>
        <mxCell id="--wnBnnWqUvRCD4Y-Vol-2" value="&lt;b&gt;&lt;font style=&quot;font-size: 14px;&quot;&gt;Sistema de Re&lt;span style=&quot;background-color: transparent; color: light-dark(rgb(0, 0, 0), rgb(255, 255, 255));&quot;&gt;servas&lt;/span&gt;&lt;/font&gt;&lt;/b&gt;" style="text;html=1;align=center;verticalAlign=middle;whiteSpace=wrap;rounded=0;" vertex="1" parent="1">
          <mxGeometry x="324" y="20" width="280" height="30" as="geometry" />
        </mxCell>
      </root>
    </mxGraphModel>
  </diagram>
  <diagram id="pX6_GwrJB2W5tt-oy7xR" name="Diagrama de clases">
    <mxGraphModel dx="758" dy="410" grid="1" gridSize="10" guides="1" tooltips="1" connect="1" arrows="1" fold="1" page="1" pageScale="1" pageWidth="827" pageHeight="1169" math="0" shadow="0">
      <root>
        <mxCell id="0" />
        <mxCell id="1" parent="0" />
        <mxCell id="UcGalSVN0GQkN7niIcfV-1" value="" style="endArrow=none;html=1;endSize=12;startArrow=none;startSize=14;startFill=0;edgeStyle=orthogonalEdgeStyle;rounded=0;fontStyle=0;exitX=0.997;exitY=0.44;exitDx=0;exitDy=0;exitPerimeter=0;entryX=0.008;entryY=0.399;entryDx=0;entryDy=0;entryPerimeter=0;" edge="1" parent="1" source="UcGalSVN0GQkN7niIcfV-21" target="UcGalSVN0GQkN7niIcfV-23">
          <mxGeometry x="0.625" y="-60" relative="1" as="geometry">
            <mxPoint x="520.0000000000002" y="296.76" as="sourcePoint" />
            <mxPoint x="641.1699999999998" y="273.26" as="targetPoint" />
            <mxPoint as="offset" />
            <Array as="points">
              <mxPoint x="630" y="270" />
              <mxPoint x="630" y="275" />
            </Array>
          </mxGeometry>
        </mxCell>
        <mxCell id="UcGalSVN0GQkN7niIcfV-2" value="0..n" style="edgeLabel;resizable=0;html=1;align=left;verticalAlign=top;" connectable="0" vertex="1" parent="UcGalSVN0GQkN7niIcfV-1">
          <mxGeometry x="-1" relative="1" as="geometry">
            <mxPoint x="10" as="offset" />
          </mxGeometry>
        </mxCell>
        <mxCell id="UcGalSVN0GQkN7niIcfV-3" value="1" style="edgeLabel;resizable=0;html=1;align=right;verticalAlign=top;" connectable="0" vertex="1" parent="UcGalSVN0GQkN7niIcfV-1">
          <mxGeometry x="1" relative="1" as="geometry">
            <mxPoint x="-10" as="offset" />
          </mxGeometry>
        </mxCell>
        <mxCell id="UcGalSVN0GQkN7niIcfV-4" value="" style="endArrow=none;html=1;endSize=12;startArrow=none;startSize=14;startFill=0;edgeStyle=orthogonalEdgeStyle;rounded=0;fontStyle=0;entryX=0.005;entryY=0.143;entryDx=0;entryDy=0;entryPerimeter=0;exitX=-0.001;exitY=0.306;exitDx=0;exitDy=0;exitPerimeter=0;" edge="1" parent="1" source="UcGalSVN0GQkN7niIcfV-22" target="UcGalSVN0GQkN7niIcfV-21">
          <mxGeometry x="0.625" y="-60" relative="1" as="geometry">
            <mxPoint x="770" y="540" as="sourcePoint" />
            <mxPoint x="890" y="410" as="targetPoint" />
            <mxPoint as="offset" />
            <Array as="points">
              <mxPoint x="410" y="485" />
              <mxPoint x="410" y="480" />
              <mxPoint x="210" y="480" />
              <mxPoint x="210" y="200" />
              <mxPoint x="321" y="200" />
              <mxPoint x="321" y="196" />
            </Array>
          </mxGeometry>
        </mxCell>
        <mxCell id="UcGalSVN0GQkN7niIcfV-5" value="0..n" style="edgeLabel;resizable=0;html=1;align=left;verticalAlign=top;" connectable="0" vertex="1" parent="UcGalSVN0GQkN7niIcfV-4">
          <mxGeometry x="-1" relative="1" as="geometry">
            <mxPoint x="-30" y="-26" as="offset" />
          </mxGeometry>
        </mxCell>
        <mxCell id="UcGalSVN0GQkN7niIcfV-6" value="1" style="edgeLabel;resizable=0;html=1;align=right;verticalAlign=top;" connectable="0" vertex="1" parent="UcGalSVN0GQkN7niIcfV-4">
          <mxGeometry x="1" relative="1" as="geometry">
            <mxPoint x="-10" as="offset" />
          </mxGeometry>
        </mxCell>
        <mxCell id="UcGalSVN0GQkN7niIcfV-7" value="" style="endArrow=none;html=1;endSize=12;startArrow=none;startSize=14;startFill=0;edgeStyle=orthogonalEdgeStyle;rounded=0;fontStyle=0;entryX=0.005;entryY=0.381;entryDx=0;entryDy=0;exitX=0;exitY=0.25;exitDx=0;exitDy=0;entryPerimeter=0;" edge="1" parent="1" source="UcGalSVN0GQkN7niIcfV-24" target="UcGalSVN0GQkN7niIcfV-22">
          <mxGeometry x="0.625" y="-60" relative="1" as="geometry">
            <mxPoint x="370" y="695" as="sourcePoint" />
            <mxPoint x="410" y="511" as="targetPoint" />
            <mxPoint as="offset" />
            <Array as="points">
              <mxPoint x="210" y="635" />
              <mxPoint x="210" y="489" />
              <mxPoint x="301" y="489" />
              <mxPoint x="301" y="499" />
              <mxPoint x="252" y="499" />
            </Array>
          </mxGeometry>
        </mxCell>
        <mxCell id="UcGalSVN0GQkN7niIcfV-8" value="1" style="edgeLabel;resizable=0;html=1;align=left;verticalAlign=top;" connectable="0" vertex="1" parent="UcGalSVN0GQkN7niIcfV-7">
          <mxGeometry x="-1" relative="1" as="geometry">
            <mxPoint x="-20" as="offset" />
          </mxGeometry>
        </mxCell>
        <mxCell id="UcGalSVN0GQkN7niIcfV-9" value="&lt;span style=&quot;text-align: left;&quot;&gt;0..n&lt;/span&gt;" style="edgeLabel;resizable=0;html=1;align=right;verticalAlign=top;" connectable="0" vertex="1" parent="UcGalSVN0GQkN7niIcfV-7">
          <mxGeometry x="1" relative="1" as="geometry">
            <mxPoint x="-10" y="1" as="offset" />
          </mxGeometry>
        </mxCell>
        <mxCell id="UcGalSVN0GQkN7niIcfV-10" value="" style="endArrow=none;html=1;endSize=12;startArrow=none;startSize=14;startFill=0;edgeStyle=orthogonalEdgeStyle;rounded=0;fontStyle=0;entryX=0;entryY=0.25;entryDx=0;entryDy=0;exitX=1;exitY=0.326;exitDx=0;exitDy=0;exitPerimeter=0;" edge="1" parent="1" source="UcGalSVN0GQkN7niIcfV-25" target="UcGalSVN0GQkN7niIcfV-20">
          <mxGeometry x="0.625" y="-60" relative="1" as="geometry">
            <mxPoint x="840" y="560" as="sourcePoint" />
            <mxPoint x="904" y="430" as="targetPoint" />
            <mxPoint as="offset" />
            <Array as="points">
              <mxPoint x="920" y="488" />
              <mxPoint x="960" y="488" />
              <mxPoint x="960" y="238" />
              <mxPoint x="990" y="238" />
            </Array>
          </mxGeometry>
        </mxCell>
        <mxCell id="UcGalSVN0GQkN7niIcfV-11" value="0..n" style="edgeLabel;resizable=0;html=1;align=left;verticalAlign=top;" connectable="0" vertex="1" parent="UcGalSVN0GQkN7niIcfV-10">
          <mxGeometry x="-1" relative="1" as="geometry">
            <mxPoint x="10" y="-58" as="offset" />
          </mxGeometry>
        </mxCell>
        <mxCell id="UcGalSVN0GQkN7niIcfV-12" value="1" style="edgeLabel;resizable=0;html=1;align=right;verticalAlign=top;" connectable="0" vertex="1" parent="UcGalSVN0GQkN7niIcfV-10">
          <mxGeometry x="1" relative="1" as="geometry">
            <mxPoint x="-10" as="offset" />
          </mxGeometry>
        </mxCell>
        <mxCell id="UcGalSVN0GQkN7niIcfV-13" value="" style="endArrow=none;html=1;endSize=12;startArrow=none;startSize=14;startFill=0;edgeStyle=orthogonalEdgeStyle;rounded=0;fontStyle=0;entryX=0;entryY=0.25;entryDx=0;entryDy=0;" edge="1" parent="1" target="UcGalSVN0GQkN7niIcfV-19">
          <mxGeometry x="0.625" y="-60" relative="1" as="geometry">
            <mxPoint x="921" y="493" as="sourcePoint" />
            <mxPoint x="950" y="500" as="targetPoint" />
            <mxPoint as="offset" />
            <Array as="points">
              <mxPoint x="921" y="497" />
              <mxPoint x="921" y="493" />
            </Array>
          </mxGeometry>
        </mxCell>
        <mxCell id="UcGalSVN0GQkN7niIcfV-14" value="0..n" style="edgeLabel;resizable=0;html=1;align=left;verticalAlign=top;" connectable="0" vertex="1" parent="UcGalSVN0GQkN7niIcfV-13">
          <mxGeometry x="-1" relative="1" as="geometry">
            <mxPoint x="10" as="offset" />
          </mxGeometry>
        </mxCell>
        <mxCell id="UcGalSVN0GQkN7niIcfV-15" value="1" style="edgeLabel;resizable=0;html=1;align=right;verticalAlign=top;" connectable="0" vertex="1" parent="UcGalSVN0GQkN7niIcfV-13">
          <mxGeometry x="1" relative="1" as="geometry">
            <mxPoint x="-10" as="offset" />
          </mxGeometry>
        </mxCell>
        <mxCell id="UcGalSVN0GQkN7niIcfV-16" value="" style="endArrow=none;html=1;endSize=12;startArrow=none;startSize=14;startFill=0;edgeStyle=orthogonalEdgeStyle;rounded=0;fontStyle=0;entryX=0.993;entryY=0.153;entryDx=0;entryDy=0;exitX=0.006;exitY=0.679;exitDx=0;exitDy=0;entryPerimeter=0;exitPerimeter=0;" edge="1" parent="1" source="UcGalSVN0GQkN7niIcfV-25" target="UcGalSVN0GQkN7niIcfV-21">
          <mxGeometry x="0.625" y="-60" relative="1" as="geometry">
            <mxPoint x="870" y="690" as="sourcePoint" />
            <mxPoint x="980" y="610" as="targetPoint" />
            <mxPoint as="offset" />
            <Array as="points">
              <mxPoint x="560" y="557" />
              <mxPoint x="560" y="198" />
            </Array>
          </mxGeometry>
        </mxCell>
        <mxCell id="UcGalSVN0GQkN7niIcfV-17" value="0..n" style="edgeLabel;resizable=0;html=1;align=left;verticalAlign=top;" connectable="0" vertex="1" parent="UcGalSVN0GQkN7niIcfV-16">
          <mxGeometry x="-1" relative="1" as="geometry">
            <mxPoint x="-30" y="-25" as="offset" />
          </mxGeometry>
        </mxCell>
        <mxCell id="UcGalSVN0GQkN7niIcfV-18" value="1" style="edgeLabel;resizable=0;html=1;align=right;verticalAlign=top;" connectable="0" vertex="1" parent="UcGalSVN0GQkN7niIcfV-16">
          <mxGeometry x="1" relative="1" as="geometry">
            <mxPoint x="10" as="offset" />
          </mxGeometry>
        </mxCell>
        <mxCell id="UcGalSVN0GQkN7niIcfV-19" value="&lt;p style=&quot;margin:0px;margin-top:4px;text-align:center;&quot;&gt;&lt;b&gt;Cancha&lt;/b&gt;&lt;/p&gt;&lt;hr size=&quot;1&quot; style=&quot;border-style:solid;&quot;&gt;&lt;p style=&quot;margin:0px;margin-left:4px;&quot;&gt;+ Id: int&lt;/p&gt;&lt;p style=&quot;margin:0px;margin-left:4px;&quot;&gt;+ Nombre: string&lt;/p&gt;&lt;hr size=&quot;1&quot; style=&quot;border-style:solid;&quot;&gt;&lt;p style=&quot;margin:0px;margin-left:4px;&quot;&gt;+ Guardar(cancha: Cancha): bool&lt;/p&gt;&lt;p style=&quot;margin:0px;margin-left:4px;&quot;&gt;+ ValidarNombre(nombre: string,Id: int) :bool&lt;/p&gt;&lt;p style=&quot;margin:0px;margin-left:4px;&quot;&gt;+ Eliminar (Id: int): bool&lt;/p&gt;&lt;p style=&quot;margin:0px;margin-left:4px;&quot;&gt;+ ObtenerPorId (Id: int):Cancha&lt;/p&gt;&lt;p style=&quot;margin:0px;margin-left:4px;&quot;&gt;+ObtenerLista (page:int ,pageSize: int,buscar:string):Cancha[*]&lt;/p&gt;&lt;p style=&quot;margin:0px;margin-left:4px;&quot;&gt;+ObtenerLista():Cancha[*]&lt;/p&gt;" style="verticalAlign=top;align=left;overflow=fill;html=1;whiteSpace=wrap;" vertex="1" parent="1">
          <mxGeometry x="1040" y="450" width="350" height="172" as="geometry" />
        </mxCell>
        <mxCell id="UcGalSVN0GQkN7niIcfV-20" value="&lt;p style=&quot;margin:0px;margin-top:4px;text-align:center;&quot;&gt;&lt;b&gt;Metdo_pago&lt;/b&gt;&lt;/p&gt;&lt;hr size=&quot;1&quot; style=&quot;border-style:solid;&quot;&gt;&lt;p style=&quot;margin:0px;margin-left:4px;&quot;&gt;+ Id: int&lt;/p&gt;&lt;p style=&quot;margin:0px;margin-left:4px;&quot;&gt;+ Nombre: string&lt;/p&gt;&lt;hr size=&quot;1&quot; style=&quot;border-style:solid;&quot;&gt;&lt;p style=&quot;margin:0px;margin-left:4px;&quot;&gt;+ Guardar(metodopago: Metodo_pago): bool&lt;/p&gt;&lt;p style=&quot;margin:0px;margin-left:4px;&quot;&gt;+ ValidarNombre(nombre: string,Id: int) :bool&lt;/p&gt;&lt;p style=&quot;margin:0px;margin-left:4px;&quot;&gt;+ Eliminar (Id: int): bool&lt;/p&gt;&lt;p style=&quot;margin:0px;margin-left:4px;&quot;&gt;+ ObtenerPorId (Id: int):Metodo_pago&lt;/p&gt;&lt;p style=&quot;margin:0px;margin-left:4px;&quot;&gt;+ObtenerLista (page:int ,pageSize: int,buscar:string):Metodo_apgo[*]&lt;/p&gt;&lt;p style=&quot;margin:0px;margin-left:4px;&quot;&gt;+ObtenerLista ():Metodo_pago[*]&lt;/p&gt;" style="verticalAlign=top;align=left;overflow=fill;html=1;whiteSpace=wrap;" vertex="1" parent="1">
          <mxGeometry x="990" y="197" width="270" height="203" as="geometry" />
        </mxCell>
        <mxCell id="UcGalSVN0GQkN7niIcfV-21" value="&lt;p style=&quot;margin:0px;margin-top:4px;text-align:center;&quot;&gt;&lt;b&gt;Usuario&lt;/b&gt;&lt;/p&gt;&lt;hr size=&quot;1&quot; style=&quot;border-style:solid;&quot;&gt;&lt;p style=&quot;margin:0px;margin-left:4px;&quot;&gt;+ Id: int&lt;/p&gt;&lt;p style=&quot;margin:0px;margin-left:4px;&quot;&gt;+ Nombre: string&lt;/p&gt;&lt;p style=&quot;margin:0px;margin-left:4px;&quot;&gt;+ Teléfono: string&lt;/p&gt;&lt;p style=&quot;margin:0px;margin-left:4px;&quot;&gt;+ Correo: string&lt;/p&gt;&lt;p style=&quot;margin:0px;margin-left:4px;&quot;&gt;+ contrasenia: string&lt;/p&gt;&lt;p style=&quot;margin:0px;margin-left:4px;&quot;&gt;+ Rol_id: int&lt;/p&gt;&lt;p style=&quot;margin:0px;margin-left:4px;&quot;&gt;+ Estado: boolean&lt;/p&gt;&lt;div&gt;&lt;br&gt;&lt;/div&gt;&lt;hr size=&quot;1&quot; style=&quot;border-style:solid;&quot;&gt;&lt;p style=&quot;margin:0px;margin-left:4px;&quot;&gt;+ Guardar(usuario: Usuario): bool&lt;/p&gt;&lt;p style=&quot;margin:0px;margin-left:4px;&quot;&gt;+ ValidarCorreo(correo: string) :bool&lt;/p&gt;&lt;p style=&quot;margin:0px;margin-left:4px;&quot;&gt;+ Eliminar(Id: int): bool&lt;/p&gt;&lt;p style=&quot;margin:0px;margin-left:4px;&quot;&gt;+ ObtenerPorId (Id: int):Usuario&lt;/p&gt;&lt;p style=&quot;margin:0px;margin-left:4px;&quot;&gt;+&amp;nbsp;&lt;span style=&quot;background-color: transparent; color: light-dark(rgb(0, 0, 0), rgb(255, 255, 255));&quot;&gt;ObtenerPorGmail (correo: string):Usuario&lt;/span&gt;&lt;/p&gt;&lt;p style=&quot;margin:0px;margin-left:4px;&quot;&gt;+ ObtenerLista ():Usuario[*]&lt;/p&gt;" style="verticalAlign=top;align=left;overflow=fill;html=1;whiteSpace=wrap;" vertex="1" parent="1">
          <mxGeometry x="250" y="160" width="270" height="250" as="geometry" />
        </mxCell>
        <mxCell id="UcGalSVN0GQkN7niIcfV-22" value="&lt;p style=&quot;margin:0px;margin-top:4px;text-align:center;&quot;&gt;&lt;b&gt;Permiso&lt;/b&gt;&lt;/p&gt;&lt;hr size=&quot;1&quot; style=&quot;border-style:solid;&quot;&gt;&lt;p style=&quot;margin:0px;margin-left:4px;&quot;&gt;+ Id: int&lt;/p&gt;&lt;p style=&quot;margin:0px;margin-left:4px;&quot;&gt;+ Usuario_id: int&lt;/p&gt;&lt;p style=&quot;margin:0px;margin-left:4px;&quot;&gt;+ Modulo_id: int&lt;/p&gt;&lt;hr size=&quot;1&quot; style=&quot;border-style:solid;&quot;&gt;&lt;p style=&quot;margin:0px;margin-left:4px;&quot;&gt;&lt;span style=&quot;background-color: transparent; color: light-dark(rgb(0, 0, 0), rgb(255, 255, 255));&quot;&gt;+ ObtenerPermiso(usuario_id: int): Permiso[*]&lt;/span&gt;&lt;/p&gt;&lt;p style=&quot;margin:0px;margin-left:4px;&quot;&gt;+ GuardarPermiso(usaurio_id:int,permiso :int[*]):bool&lt;/p&gt;&lt;p style=&quot;margin:0px;margin-left:4px;&quot;&gt;&lt;br&gt;&lt;/p&gt;&lt;p style=&quot;margin:0px;margin-left:4px;&quot;&gt;&lt;br&gt;&lt;/p&gt;" style="verticalAlign=top;align=left;overflow=fill;html=1;whiteSpace=wrap;" vertex="1" parent="1">
          <mxGeometry x="250" y="440" width="290" height="130" as="geometry" />
        </mxCell>
        <mxCell id="UcGalSVN0GQkN7niIcfV-23" value="&lt;p style=&quot;margin:0px;margin-top:4px;text-align:center;&quot;&gt;&lt;b&gt;Rol&lt;/b&gt;&lt;/p&gt;&lt;hr size=&quot;1&quot; style=&quot;border-style:solid;&quot;&gt;&lt;p style=&quot;margin:0px;margin-left:4px;&quot;&gt;+ Id: int&lt;/p&gt;&lt;p style=&quot;margin:0px;margin-left:4px;&quot;&gt;+ Nombre: string&lt;/p&gt;&lt;hr size=&quot;1&quot; style=&quot;border-style:solid;&quot;&gt;&lt;p style=&quot;margin:0px;margin-left:4px;&quot;&gt;&lt;span style=&quot;background-color: transparent; color: light-dark(rgb(0, 0, 0), rgb(255, 255, 255));&quot;&gt;+ObtenerLista ():Rol[*]&lt;/span&gt;&lt;/p&gt;" style="verticalAlign=top;align=left;overflow=fill;html=1;whiteSpace=wrap;" vertex="1" parent="1">
          <mxGeometry x="620" y="235" width="160" height="100" as="geometry" />
        </mxCell>
        <mxCell id="UcGalSVN0GQkN7niIcfV-24" value="&lt;p style=&quot;margin:0px;margin-top:4px;text-align:center;&quot;&gt;&lt;b&gt;Modulo&lt;/b&gt;&lt;/p&gt;&lt;hr size=&quot;1&quot; style=&quot;border-style:solid;&quot;&gt;&lt;p style=&quot;margin:0px;margin-left:4px;&quot;&gt;+ Id: int&lt;/p&gt;&lt;p style=&quot;margin:0px;margin-left:4px;&quot;&gt;+ Nombre: string&lt;/p&gt;&lt;hr size=&quot;1&quot; style=&quot;border-style:solid;&quot;&gt;&lt;p style=&quot;margin:0px;margin-left:4px;&quot;&gt;+ ObtenerLista ():Modulo[*]&lt;/p&gt;" style="verticalAlign=top;align=left;overflow=fill;html=1;whiteSpace=wrap;" vertex="1" parent="1">
          <mxGeometry x="250" y="612" width="230" height="100" as="geometry" />
        </mxCell>
        <mxCell id="UcGalSVN0GQkN7niIcfV-25" value="&lt;p style=&quot;margin:0px;margin-top:4px;text-align:center;&quot;&gt;&lt;b&gt;Reserva&lt;/b&gt;&lt;/p&gt;&lt;hr size=&quot;1&quot; style=&quot;border-style:solid;&quot;&gt;&lt;p style=&quot;margin:0px;margin-left:4px;&quot;&gt;+&amp;nbsp; Id: int&lt;/p&gt;&lt;p style=&quot;margin:0px;margin-left:4px;&quot;&gt;+&amp;nbsp;&lt;span style=&quot;background-color: transparent; color: light-dark(rgb(0, 0, 0), rgb(255, 255, 255));&quot;&gt;&amp;nbsp;&lt;/span&gt;&lt;span style=&quot;background-color: transparent; color: light-dark(rgb(0, 0, 0), rgb(255, 255, 255));&quot;&gt;Nombre_cliente: string&lt;/span&gt;&lt;/p&gt;&lt;p style=&quot;margin:0px;margin-left:4px;&quot;&gt;+&amp;nbsp; Fecha: date&lt;/p&gt;&lt;p style=&quot;margin:0px;margin-left:4px;&quot;&gt;+&amp;nbsp; Hora inicio: time&lt;/p&gt;&lt;p style=&quot;margin:0px;margin-left:4px;&quot;&gt;+&amp;nbsp; Hora fin: time&lt;/p&gt;&lt;p style=&quot;margin:0px;margin-left:4px;&quot;&gt;+&amp;nbsp; Metodo_pago_id: int&lt;/p&gt;&lt;p style=&quot;margin:0px;margin-left:4px;&quot;&gt;+&amp;nbsp; Tipo_pago: string&lt;/p&gt;&lt;p style=&quot;margin:0px;margin-left:4px;&quot;&gt;+&amp;nbsp; Cancha id: int&lt;/p&gt;&lt;p style=&quot;margin:0px;margin-left:4px;&quot;&gt;+&amp;nbsp; Monto total: float&lt;/p&gt;&lt;p style=&quot;margin:0px;margin-left:4px;&quot;&gt;+&amp;nbsp; Monto pagado: float&lt;/p&gt;&lt;p style=&quot;margin:0px;margin-left:4px;&quot;&gt;+&amp;nbsp; Telefono: string&lt;/p&gt;&lt;p style=&quot;margin:0px;margin-left:4px;&quot;&gt;+&amp;nbsp; Usuario_id: int&lt;/p&gt;&lt;hr size=&quot;1&quot; style=&quot;border-style:solid;&quot;&gt;&lt;p style=&quot;margin: 0px 0px 0px 4px;&quot;&gt;+ Guardar(reserva: Reserva): bool&lt;/p&gt;&lt;p style=&quot;margin: 0px 0px 0px 4px;&quot;&gt;+ValidarReserva(fecha:date,horaini:time,horafin:time,&lt;/p&gt;&lt;p style=&quot;margin: 0px 0px 0px 4px;&quot;&gt;&amp;nbsp; &amp;nbsp;Cancha_id:int) :bool&lt;/p&gt;&lt;p style=&quot;margin: 0px 0px 0px 4px;&quot;&gt;+ ObtenerPorId (Id: int):Reserva&lt;/p&gt;&lt;p style=&quot;margin: 0px 0px 0px 4px;&quot;&gt;+ ObtenerLista (fecha:date):Reserva[*]&lt;/p&gt;&lt;p style=&quot;margin: 0px 0px 0px 4px;&quot;&gt;+validarMonto(Montototal:float,&lt;/p&gt;&lt;p style=&quot;margin: 0px 0px 0px 4px;&quot;&gt;&amp;nbsp; &amp;nbsp;MontoPagado:float,Tipo_pago:string):bool&lt;/p&gt;&lt;p style=&quot;margin: 0px 0px 0px 4px;&quot;&gt;+ DeterminarEstado():string&lt;/p&gt;&lt;p style=&quot;margin: 0px 0px 0px 4px;&quot;&gt;+ RegistrarPagoAdicional(monto : decimal) : void&lt;/p&gt;&lt;p style=&quot;margin: 0px 0px 0px 4px;&quot;&gt;+ CalcularSaldo() : decimal&lt;/p&gt;" style="verticalAlign=top;align=left;overflow=fill;html=1;whiteSpace=wrap;" vertex="1" parent="1">
          <mxGeometry x="590" y="360" width="330" height="380" as="geometry" />
        </mxCell>
      </root>
    </mxGraphModel>
  </diagram>
  <diagram id="9t8Sb2p0LKOBbZzTchto" name="reservarCancha">
    <mxGraphModel dx="872" dy="471" grid="1" gridSize="10" guides="1" tooltips="1" connect="1" arrows="1" fold="1" page="1" pageScale="1" pageWidth="827" pageHeight="1169" math="0" shadow="0">
      <root>
        <mxCell id="0" />
        <mxCell id="1" parent="0" />
        <mxCell id="fL76YVsGy-07BFEQjZaE-22" value="Usuario" style="fontStyle=1;whiteSpace=wrap;html=1;gradientColor=none;strokeColor=none;" vertex="1" parent="1">
          <mxGeometry x="50" y="370" width="140" height="30" as="geometry" />
        </mxCell>
        <mxCell id="fL76YVsGy-07BFEQjZaE-30" value="" style="endArrow=none;html=1;strokeWidth=1;rounded=0;entryX=0.5;entryY=1;entryDx=0;entryDy=0;dashed=1;" edge="1" parent="1" source="fL76YVsGy-07BFEQjZaE-32" target="fL76YVsGy-07BFEQjZaE-22">
          <mxGeometry width="50" height="50" relative="1" as="geometry">
            <mxPoint x="120" y="767" as="sourcePoint" />
            <mxPoint x="455" y="390" as="targetPoint" />
            <Array as="points">
              <mxPoint x="120" y="410" />
            </Array>
          </mxGeometry>
        </mxCell>
        <mxCell id="fL76YVsGy-07BFEQjZaE-33" value="" style="endArrow=none;html=1;strokeWidth=1;rounded=0;entryX=0.5;entryY=1;entryDx=0;entryDy=0;dashed=1;" edge="1" parent="1" target="fL76YVsGy-07BFEQjZaE-32">
          <mxGeometry width="50" height="50" relative="1" as="geometry">
            <mxPoint x="120" y="1240" as="sourcePoint" />
            <mxPoint x="120" y="400" as="targetPoint" />
          </mxGeometry>
        </mxCell>
        <mxCell id="fL76YVsGy-07BFEQjZaE-32" value="" style="html=1;points=[[0,0,0,0,5],[0,1,0,0,-5],[1,0,0,0,5],[1,1,0,0,-5]];perimeter=orthogonalPerimeter;outlineConnect=0;targetShapes=umlLifeline;portConstraint=eastwest;newEdgeStyle={&quot;curved&quot;:0,&quot;rounded&quot;:0};" vertex="1" parent="1">
          <mxGeometry x="115" y="420" width="10" height="770" as="geometry" />
        </mxCell>
        <mxCell id="fL76YVsGy-07BFEQjZaE-35" value="Reserva" style="fontStyle=1;whiteSpace=wrap;html=1;gradientColor=none;strokeColor=none;" vertex="1" parent="1">
          <mxGeometry x="360" y="370" width="140" height="30" as="geometry" />
        </mxCell>
        <mxCell id="fL76YVsGy-07BFEQjZaE-36" value="" style="endArrow=none;html=1;strokeWidth=1;rounded=0;entryX=0.5;entryY=1;entryDx=0;entryDy=0;dashed=1;" edge="1" parent="1" source="fL76YVsGy-07BFEQjZaE-38">
          <mxGeometry width="50" height="50" relative="1" as="geometry">
            <mxPoint x="430" y="767" as="sourcePoint" />
            <mxPoint x="429.9999999999999" y="400" as="targetPoint" />
            <Array as="points">
              <mxPoint x="430" y="410" />
            </Array>
          </mxGeometry>
        </mxCell>
        <mxCell id="fL76YVsGy-07BFEQjZaE-37" value="" style="endArrow=none;html=1;strokeWidth=1;rounded=0;entryX=0.5;entryY=1;entryDx=0;entryDy=0;dashed=1;" edge="1" parent="1" target="fL76YVsGy-07BFEQjZaE-38">
          <mxGeometry width="50" height="50" relative="1" as="geometry">
            <mxPoint x="430" y="1130" as="sourcePoint" />
            <mxPoint x="430" y="400" as="targetPoint" />
          </mxGeometry>
        </mxCell>
        <mxCell id="fL76YVsGy-07BFEQjZaE-38" value="" style="html=1;points=[[0,0,0,0,5],[0,1,0,0,-5],[1,0,0,0,5],[1,1,0,0,-5]];perimeter=orthogonalPerimeter;outlineConnect=0;targetShapes=umlLifeline;portConstraint=eastwest;newEdgeStyle={&quot;curved&quot;:0,&quot;rounded&quot;:0};" vertex="1" parent="1">
          <mxGeometry x="425" y="420" width="10" height="700" as="geometry" />
        </mxCell>
        <mxCell id="fL76YVsGy-07BFEQjZaE-39" value="Cancha" style="fontStyle=1;whiteSpace=wrap;html=1;gradientColor=none;strokeColor=none;" vertex="1" parent="1">
          <mxGeometry x="562.65" y="370" width="140" height="30" as="geometry" />
        </mxCell>
        <mxCell id="fL76YVsGy-07BFEQjZaE-40" value="" style="endArrow=none;html=1;strokeWidth=1;rounded=0;entryX=0.5;entryY=1;entryDx=0;entryDy=0;dashed=1;" edge="1" parent="1" source="fL76YVsGy-07BFEQjZaE-42" target="fL76YVsGy-07BFEQjZaE-39">
          <mxGeometry width="50" height="50" relative="1" as="geometry">
            <mxPoint x="632.65" y="767" as="sourcePoint" />
            <mxPoint x="967.65" y="390" as="targetPoint" />
            <Array as="points">
              <mxPoint x="632.65" y="410" />
            </Array>
          </mxGeometry>
        </mxCell>
        <mxCell id="fL76YVsGy-07BFEQjZaE-41" value="" style="endArrow=none;html=1;strokeWidth=1;rounded=0;entryX=0.5;entryY=1;entryDx=0;entryDy=0;dashed=1;" edge="1" parent="1" target="fL76YVsGy-07BFEQjZaE-42">
          <mxGeometry width="50" height="50" relative="1" as="geometry">
            <mxPoint x="630" y="610" as="sourcePoint" />
            <mxPoint x="632.65" y="400" as="targetPoint" />
          </mxGeometry>
        </mxCell>
        <mxCell id="fL76YVsGy-07BFEQjZaE-42" value="" style="html=1;points=[[0,0,0,0,5],[0,1,0,0,-5],[1,0,0,0,5],[1,1,0,0,-5]];perimeter=orthogonalPerimeter;outlineConnect=0;targetShapes=umlLifeline;portConstraint=eastwest;newEdgeStyle={&quot;curved&quot;:0,&quot;rounded&quot;:0};" vertex="1" parent="1">
          <mxGeometry x="627.65" y="540" width="10" height="50" as="geometry" />
        </mxCell>
        <mxCell id="fL76YVsGy-07BFEQjZaE-43" value="Metodo_pago" style="fontStyle=1;whiteSpace=wrap;html=1;gradientColor=none;strokeColor=none;" vertex="1" parent="1">
          <mxGeometry x="732.65" y="370" width="140" height="30" as="geometry" />
        </mxCell>
        <mxCell id="fL76YVsGy-07BFEQjZaE-44" value="" style="endArrow=none;html=1;strokeWidth=1;rounded=0;entryX=0.5;entryY=1;entryDx=0;entryDy=0;dashed=1;" edge="1" parent="1" source="fL76YVsGy-07BFEQjZaE-46" target="fL76YVsGy-07BFEQjZaE-43">
          <mxGeometry width="50" height="50" relative="1" as="geometry">
            <mxPoint x="802.65" y="767" as="sourcePoint" />
            <mxPoint x="1137.65" y="390" as="targetPoint" />
            <Array as="points">
              <mxPoint x="802.65" y="410" />
            </Array>
          </mxGeometry>
        </mxCell>
        <mxCell id="fL76YVsGy-07BFEQjZaE-45" value="" style="endArrow=none;html=1;strokeWidth=1;rounded=0;entryX=0.5;entryY=1;entryDx=0;entryDy=0;dashed=1;" edge="1" parent="1" target="fL76YVsGy-07BFEQjZaE-46">
          <mxGeometry width="50" height="50" relative="1" as="geometry">
            <mxPoint x="803" y="690" as="sourcePoint" />
            <mxPoint x="802.65" y="400" as="targetPoint" />
          </mxGeometry>
        </mxCell>
        <mxCell id="fL76YVsGy-07BFEQjZaE-46" value="" style="html=1;points=[[0,0,0,0,5],[0,1,0,0,-5],[1,0,0,0,5],[1,1,0,0,-5]];perimeter=orthogonalPerimeter;outlineConnect=0;targetShapes=umlLifeline;portConstraint=eastwest;newEdgeStyle={&quot;curved&quot;:0,&quot;rounded&quot;:0};" vertex="1" parent="1">
          <mxGeometry x="797.65" y="600" width="10" height="70" as="geometry" />
        </mxCell>
        <mxCell id="Fa2EuYJ9mlma17pj7-Q1-2" value="" style="endArrow=block;endFill=1;endSize=12;html=1;rounded=0;" edge="1" parent="1" target="fL76YVsGy-07BFEQjZaE-38">
          <mxGeometry width="160" relative="1" as="geometry">
            <mxPoint x="125" y="470" as="sourcePoint" />
            <mxPoint x="302.3499999999999" y="470" as="targetPoint" />
          </mxGeometry>
        </mxCell>
        <mxCell id="jhRK3ScWM8ri79eTJb6q-1" value="ObtenerLista(fecha):reserva" style="edgeLabel;html=1;align=center;verticalAlign=middle;resizable=0;points=[];" vertex="1" connectable="0" parent="Fa2EuYJ9mlma17pj7-Q1-2">
          <mxGeometry x="-0.025" y="7" relative="1" as="geometry">
            <mxPoint y="-3" as="offset" />
          </mxGeometry>
        </mxCell>
        <mxCell id="jhRK3ScWM8ri79eTJb6q-2" value="Lista de reservas del día" style="endArrow=open;endSize=12;dashed=1;html=1;rounded=0;" edge="1" parent="1" source="fL76YVsGy-07BFEQjZaE-38">
          <mxGeometry x="0.0619" y="-10" width="160" relative="1" as="geometry">
            <mxPoint x="302.3499999999999" y="500" as="sourcePoint" />
            <mxPoint x="125" y="500" as="targetPoint" />
            <mxPoint as="offset" />
          </mxGeometry>
        </mxCell>
        <mxCell id="jhRK3ScWM8ri79eTJb6q-8" value="" style="endArrow=block;endFill=1;endSize=12;html=1;rounded=0;" edge="1" parent="1" target="fL76YVsGy-07BFEQjZaE-42">
          <mxGeometry width="160" relative="1" as="geometry">
            <mxPoint x="125" y="560" as="sourcePoint" />
            <mxPoint x="302.3499999999999" y="560" as="targetPoint" />
          </mxGeometry>
        </mxCell>
        <mxCell id="jhRK3ScWM8ri79eTJb6q-9" value="ObtenerLista():cancha" style="edgeLabel;html=1;align=center;verticalAlign=middle;resizable=0;points=[];" vertex="1" connectable="0" parent="jhRK3ScWM8ri79eTJb6q-8">
          <mxGeometry x="-0.025" y="7" relative="1" as="geometry">
            <mxPoint x="-80" y="-3" as="offset" />
          </mxGeometry>
        </mxCell>
        <mxCell id="jhRK3ScWM8ri79eTJb6q-12" value="Lista de canchas" style="endArrow=open;endSize=12;dashed=1;html=1;rounded=0;exitX=0;exitY=1;exitDx=0;exitDy=-5;exitPerimeter=0;" edge="1" parent="1" source="fL76YVsGy-07BFEQjZaE-42">
          <mxGeometry x="0.4597" y="-10" width="160" relative="1" as="geometry">
            <mxPoint x="505" y="583" as="sourcePoint" />
            <mxPoint x="125" y="583" as="targetPoint" />
            <mxPoint as="offset" />
          </mxGeometry>
        </mxCell>
        <mxCell id="jhRK3ScWM8ri79eTJb6q-13" value="" style="endArrow=block;endFill=1;endSize=12;html=1;rounded=0;" edge="1" parent="1" target="fL76YVsGy-07BFEQjZaE-46">
          <mxGeometry width="160" relative="1" as="geometry">
            <mxPoint x="125" y="620" as="sourcePoint" />
            <mxPoint x="674.9999999999995" y="620" as="targetPoint" />
          </mxGeometry>
        </mxCell>
        <mxCell id="jhRK3ScWM8ri79eTJb6q-14" value="ObtenerLista():metodopago" style="edgeLabel;html=1;align=center;verticalAlign=middle;resizable=0;points=[];" vertex="1" connectable="0" parent="jhRK3ScWM8ri79eTJb6q-13">
          <mxGeometry x="-0.025" y="7" relative="1" as="geometry">
            <mxPoint x="-173" y="-3" as="offset" />
          </mxGeometry>
        </mxCell>
        <mxCell id="jhRK3ScWM8ri79eTJb6q-15" value="Lista de metodos de pago" style="endArrow=open;endSize=12;dashed=1;html=1;rounded=0;" edge="1" parent="1" source="fL76YVsGy-07BFEQjZaE-46">
          <mxGeometry x="0.6909" y="-10" width="160" relative="1" as="geometry">
            <mxPoint x="674.9999999999995" y="660" as="sourcePoint" />
            <mxPoint x="125" y="660" as="targetPoint" />
            <mxPoint as="offset" />
          </mxGeometry>
        </mxCell>
        <mxCell id="jhRK3ScWM8ri79eTJb6q-16" value="" style="shape=umlBoundary;whiteSpace=wrap;html=1;rotation=-90;" vertex="1" parent="1">
          <mxGeometry x="410" y="330" width="40" height="40" as="geometry" />
        </mxCell>
        <mxCell id="jhRK3ScWM8ri79eTJb6q-17" value="" style="shape=umlBoundary;whiteSpace=wrap;html=1;rotation=-90;" vertex="1" parent="1">
          <mxGeometry x="612.65" y="330" width="40" height="40" as="geometry" />
        </mxCell>
        <mxCell id="jhRK3ScWM8ri79eTJb6q-18" value="" style="shape=umlBoundary;whiteSpace=wrap;html=1;rotation=-90;" vertex="1" parent="1">
          <mxGeometry x="782.65" y="330" width="40" height="40" as="geometry" />
        </mxCell>
        <mxCell id="jhRK3ScWM8ri79eTJb6q-19" value="" style="endArrow=block;endFill=1;endSize=12;html=1;rounded=0;" edge="1" parent="1" target="fL76YVsGy-07BFEQjZaE-38">
          <mxGeometry width="160" relative="1" as="geometry">
            <mxPoint x="125" y="700" as="sourcePoint" />
            <mxPoint x="302.3499999999999" y="700" as="targetPoint" />
          </mxGeometry>
        </mxCell>
        <mxCell id="jhRK3ScWM8ri79eTJb6q-20" value="validarReserva(fecha,horaini,horafin,cancha_id):bool" style="edgeLabel;html=1;align=center;verticalAlign=middle;resizable=0;points=[];" vertex="1" connectable="0" parent="jhRK3ScWM8ri79eTJb6q-19">
          <mxGeometry x="-0.025" y="7" relative="1" as="geometry">
            <mxPoint y="-3" as="offset" />
          </mxGeometry>
        </mxCell>
        <mxCell id="GOVtyr1EVy8QqkiQDRlM-1" value="bool(disponible)" style="endArrow=open;endSize=12;dashed=1;html=1;rounded=0;" edge="1" parent="1" source="fL76YVsGy-07BFEQjZaE-38" target="fL76YVsGy-07BFEQjZaE-32">
          <mxGeometry x="0.0619" y="-10" width="160" relative="1" as="geometry">
            <mxPoint x="415" y="740" as="sourcePoint" />
            <mxPoint x="150" y="750" as="targetPoint" />
            <mxPoint as="offset" />
            <Array as="points">
              <mxPoint x="390" y="730" />
            </Array>
          </mxGeometry>
        </mxCell>
        <mxCell id="GOVtyr1EVy8QqkiQDRlM-2" value="alt" style="shape=umlFrame;whiteSpace=wrap;html=1;pointerEvents=0;width=40;height=20;" vertex="1" parent="1">
          <mxGeometry x="50" y="750" width="740" height="390" as="geometry" />
        </mxCell>
        <mxCell id="GOVtyr1EVy8QqkiQDRlM-3" value="&lt;b&gt;&lt;font style=&quot;font-size: 8px;&quot;&gt;[Cancha disponible]&lt;/font&gt;&lt;/b&gt;" style="text;html=1;align=center;verticalAlign=middle;resizable=0;points=[];autosize=1;strokeColor=none;fillColor=none;" vertex="1" parent="1">
          <mxGeometry x="116" y="743" width="100" height="30" as="geometry" />
        </mxCell>
        <mxCell id="GOVtyr1EVy8QqkiQDRlM-5" value="validarMonto(montototal,montoPagado,tipoPago)" style="html=1;align=left;spacingLeft=2;endArrow=block;rounded=0;edgeStyle=orthogonalEdgeStyle;curved=0;rounded=0;" edge="1" target="fL76YVsGy-07BFEQjZaE-38" parent="1" source="fL76YVsGy-07BFEQjZaE-38">
          <mxGeometry x="-0.001" relative="1" as="geometry">
            <mxPoint x="440" y="773" as="sourcePoint" />
            <Array as="points">
              <mxPoint x="465" y="773" />
              <mxPoint x="465" y="790" />
            </Array>
            <mxPoint x="440" y="802.9999999999998" as="targetPoint" />
            <mxPoint as="offset" />
          </mxGeometry>
        </mxCell>
        <mxCell id="GOVtyr1EVy8QqkiQDRlM-6" value="* Si tipoPago=parcial =&amp;gt; 0 &amp;lt; montoPagado &amp;lt;montoTotal" style="shape=note2;boundedLbl=1;whiteSpace=wrap;html=1;size=25;verticalAlign=top;align=left;spacingLeft=5;" vertex="1" parent="1">
          <mxGeometry x="732.65" y="760" width="360" height="60" as="geometry" />
        </mxCell>
        <mxCell id="GOVtyr1EVy8QqkiQDRlM-7" value="Reglas&lt;div&gt;* Si tipoPago=completo =&amp;gt; montoPagado==montoTotal&amp;nbsp;&lt;/div&gt;" style="resizeWidth=1;part=1;strokeColor=none;fillColor=none;align=left;spacingLeft=5;whiteSpace=wrap;html=1;" vertex="1" parent="GOVtyr1EVy8QqkiQDRlM-6">
          <mxGeometry width="565.7142857142858" height="25" relative="1" as="geometry" />
        </mxCell>
        <mxCell id="GOVtyr1EVy8QqkiQDRlM-8" value="alt" style="shape=umlFrame;whiteSpace=wrap;html=1;pointerEvents=0;width=30;height=30;" vertex="1" parent="1">
          <mxGeometry x="67.65" y="830" width="692.35" height="200" as="geometry" />
        </mxCell>
        <mxCell id="GOVtyr1EVy8QqkiQDRlM-9" value="&lt;b&gt;&lt;font style=&quot;font-size: 8px;&quot;&gt;[Monto Valido]&lt;/font&gt;&lt;/b&gt;" style="text;html=1;align=center;verticalAlign=middle;resizable=0;points=[];autosize=1;strokeColor=none;fillColor=none;" vertex="1" parent="1">
          <mxGeometry x="120" y="826" width="80" height="30" as="geometry" />
        </mxCell>
        <mxCell id="GOVtyr1EVy8QqkiQDRlM-10" value="calcularSaldo(montototal,montoPagado)" style="html=1;align=left;spacingLeft=2;endArrow=block;rounded=0;edgeStyle=orthogonalEdgeStyle;curved=0;rounded=0;" edge="1" parent="1">
          <mxGeometry x="-0.001" relative="1" as="geometry">
            <mxPoint x="435" y="856" as="sourcePoint" />
            <Array as="points">
              <mxPoint x="465" y="856" />
              <mxPoint x="465" y="873" />
            </Array>
            <mxPoint x="435" y="873" as="targetPoint" />
            <mxPoint as="offset" />
          </mxGeometry>
        </mxCell>
        <mxCell id="GOVtyr1EVy8QqkiQDRlM-12" value="determinarEatdo(tipoPago,saldo)" style="html=1;align=left;spacingLeft=2;endArrow=block;rounded=0;edgeStyle=orthogonalEdgeStyle;curved=0;rounded=0;" edge="1" parent="1">
          <mxGeometry x="-0.001" relative="1" as="geometry">
            <mxPoint x="435" y="890.0022222222224" as="sourcePoint" />
            <Array as="points">
              <mxPoint x="470" y="889.98" />
              <mxPoint x="470" y="906.98" />
            </Array>
            <mxPoint x="435" y="906.98" as="targetPoint" />
            <mxPoint as="offset" />
          </mxGeometry>
        </mxCell>
        <mxCell id="GOVtyr1EVy8QqkiQDRlM-13" value="&lt;div&gt;&lt;span style=&quot;background-color: transparent; color: light-dark(rgb(0, 0, 0), rgb(255, 255, 255));&quot;&gt;* Si saldo==0&amp;nbsp; -&amp;gt; &quot;pago completo&quot;&amp;nbsp;&lt;/span&gt;&lt;/div&gt;" style="shape=note2;boundedLbl=1;whiteSpace=wrap;html=1;size=25;verticalAlign=top;align=left;spacingLeft=5;" vertex="1" parent="1">
          <mxGeometry x="652.65" y="890" width="197.35" height="60" as="geometry" />
        </mxCell>
        <mxCell id="GOVtyr1EVy8QqkiQDRlM-14" value="&lt;br&gt;&lt;div&gt;* Si saldo&amp;gt;0 -&amp;gt; &quot;pago parcial&quot;&amp;nbsp;&lt;/div&gt;" style="resizeWidth=1;part=1;strokeColor=none;fillColor=none;align=left;spacingLeft=5;whiteSpace=wrap;html=1;" vertex="1" parent="GOVtyr1EVy8QqkiQDRlM-13">
          <mxGeometry width="310.1214285714286" height="25" relative="1" as="geometry" />
        </mxCell>
        <mxCell id="GOVtyr1EVy8QqkiQDRlM-17" value="confirmación" style="endArrow=open;endSize=12;dashed=1;html=1;rounded=0;" edge="1" parent="1" source="fL76YVsGy-07BFEQjZaE-38" target="fL76YVsGy-07BFEQjZaE-32">
          <mxGeometry x="0.0619" y="-10" width="160" relative="1" as="geometry">
            <mxPoint x="420" y="980" as="sourcePoint" />
            <mxPoint x="150" y="980" as="targetPoint" />
            <mxPoint as="offset" />
            <Array as="points">
              <mxPoint x="370" y="980" />
            </Array>
          </mxGeometry>
        </mxCell>
        <mxCell id="GOVtyr1EVy8QqkiQDRlM-18" value="&lt;span style=&quot;font-size: 8px;&quot;&gt;&lt;b&gt;[Cancha no disponible]&lt;/b&gt;&lt;/span&gt;" style="text;html=1;align=center;verticalAlign=middle;resizable=0;points=[];autosize=1;strokeColor=none;fillColor=none;" vertex="1" parent="1">
          <mxGeometry x="120" y="1050" width="110" height="30" as="geometry" />
        </mxCell>
        <mxCell id="GOVtyr1EVy8QqkiQDRlM-19" value="" style="endArrow=none;endFill=1;endSize=12;html=1;rounded=0;exitX=-0.004;exitY=0.734;exitDx=0;exitDy=0;exitPerimeter=0;entryX=1.002;entryY=0.734;entryDx=0;entryDy=0;entryPerimeter=0;startFill=0;dashed=1;" edge="1" parent="1">
          <mxGeometry width="160" relative="1" as="geometry">
            <mxPoint x="49.999999999999964" y="1050" as="sourcePoint" />
            <mxPoint x="794.44" y="1050" as="targetPoint" />
          </mxGeometry>
        </mxCell>
        <mxCell id="GOVtyr1EVy8QqkiQDRlM-20" value="Error(&quot;Cancha Ocupada&quot;)" style="endArrow=open;endSize=12;dashed=1;html=1;rounded=0;" edge="1" parent="1">
          <mxGeometry x="0.0619" y="-10" width="160" relative="1" as="geometry">
            <mxPoint x="425" y="1100" as="sourcePoint" />
            <mxPoint x="125" y="1100" as="targetPoint" />
            <mxPoint as="offset" />
            <Array as="points">
              <mxPoint x="370" y="1100" />
            </Array>
          </mxGeometry>
        </mxCell>
        <mxCell id="iQXjBPcvkewcu6pBk0f1-1" value="" style="shape=umlBoundary;whiteSpace=wrap;html=1;" vertex="1" parent="1">
          <mxGeometry x="95" y="330" width="50" height="40" as="geometry" />
        </mxCell>
        <mxCell id="r0PUIcA7OplrvbE8UMf7-1" value="" style="endArrow=block;endFill=1;endSize=12;html=1;rounded=0;" edge="1" parent="1">
          <mxGeometry width="160" relative="1" as="geometry">
            <mxPoint x="125" y="950" as="sourcePoint" />
            <mxPoint x="425" y="950" as="targetPoint" />
          </mxGeometry>
        </mxCell>
        <mxCell id="r0PUIcA7OplrvbE8UMf7-2" value="guardar(reserva)" style="edgeLabel;html=1;align=center;verticalAlign=middle;resizable=0;points=[];" vertex="1" connectable="0" parent="r0PUIcA7OplrvbE8UMf7-1">
          <mxGeometry x="-0.025" y="7" relative="1" as="geometry">
            <mxPoint y="-3" as="offset" />
          </mxGeometry>
        </mxCell>
      </root>
    </mxGraphModel>
  </diagram>
  <diagram id="hjdPVAF77AmAmaPBnAo5" name="completarPago">
    <mxGraphModel dx="727" dy="393" grid="1" gridSize="10" guides="1" tooltips="1" connect="1" arrows="1" fold="1" page="1" pageScale="1" pageWidth="827" pageHeight="1169" math="0" shadow="0">
      <root>
        <mxCell id="0" />
        <mxCell id="1" parent="0" />
        <mxCell id="KKl_57p_AOMN9bFQtjyA-1" value="Usuario" style="fontStyle=1;whiteSpace=wrap;html=1;gradientColor=none;strokeColor=none;" vertex="1" parent="1">
          <mxGeometry x="200.00000000000003" y="160" width="140" height="30" as="geometry" />
        </mxCell>
        <mxCell id="KKl_57p_AOMN9bFQtjyA-2" value="" style="endArrow=none;html=1;strokeWidth=1;rounded=0;entryX=0.5;entryY=1;entryDx=0;entryDy=0;dashed=1;" edge="1" parent="1" source="KKl_57p_AOMN9bFQtjyA-4" target="KKl_57p_AOMN9bFQtjyA-1">
          <mxGeometry width="50" height="50" relative="1" as="geometry">
            <mxPoint x="270" y="557" as="sourcePoint" />
            <mxPoint x="605" y="180" as="targetPoint" />
            <Array as="points">
              <mxPoint x="270" y="200" />
            </Array>
          </mxGeometry>
        </mxCell>
        <mxCell id="KKl_57p_AOMN9bFQtjyA-3" value="" style="endArrow=none;html=1;strokeWidth=1;rounded=0;entryX=0.5;entryY=1;entryDx=0;entryDy=0;dashed=1;" edge="1" parent="1" target="KKl_57p_AOMN9bFQtjyA-4">
          <mxGeometry width="50" height="50" relative="1" as="geometry">
            <mxPoint x="270" y="910" as="sourcePoint" />
            <mxPoint x="270" y="190" as="targetPoint" />
          </mxGeometry>
        </mxCell>
        <mxCell id="KKl_57p_AOMN9bFQtjyA-4" value="" style="html=1;points=[[0,0,0,0,5],[0,1,0,0,-5],[1,0,0,0,5],[1,1,0,0,-5]];perimeter=orthogonalPerimeter;outlineConnect=0;targetShapes=umlLifeline;portConstraint=eastwest;newEdgeStyle={&quot;curved&quot;:0,&quot;rounded&quot;:0};" vertex="1" parent="1">
          <mxGeometry x="265" y="210" width="10" height="670" as="geometry" />
        </mxCell>
        <mxCell id="KKl_57p_AOMN9bFQtjyA-5" value="Reserva" style="fontStyle=1;whiteSpace=wrap;html=1;gradientColor=none;strokeColor=none;" vertex="1" parent="1">
          <mxGeometry x="510" y="160" width="140" height="30" as="geometry" />
        </mxCell>
        <mxCell id="KKl_57p_AOMN9bFQtjyA-6" value="" style="endArrow=none;html=1;strokeWidth=1;rounded=0;entryX=0.5;entryY=1;entryDx=0;entryDy=0;dashed=1;" edge="1" parent="1" source="KKl_57p_AOMN9bFQtjyA-8">
          <mxGeometry width="50" height="50" relative="1" as="geometry">
            <mxPoint x="580" y="557" as="sourcePoint" />
            <mxPoint x="579.9999999999999" y="190" as="targetPoint" />
            <Array as="points">
              <mxPoint x="580" y="200" />
            </Array>
          </mxGeometry>
        </mxCell>
        <mxCell id="KKl_57p_AOMN9bFQtjyA-7" value="" style="endArrow=none;html=1;strokeWidth=1;rounded=0;entryX=0.5;entryY=1;entryDx=0;entryDy=0;dashed=1;" edge="1" parent="1">
          <mxGeometry width="50" height="50" relative="1" as="geometry">
            <mxPoint x="580" y="857" as="sourcePoint" />
            <mxPoint x="580" y="847.0000000000002" as="targetPoint" />
          </mxGeometry>
        </mxCell>
        <mxCell id="KKl_57p_AOMN9bFQtjyA-8" value="" style="html=1;points=[[0,0,0,0,5],[0,1,0,0,-5],[1,0,0,0,5],[1,1,0,0,-5]];perimeter=orthogonalPerimeter;outlineConnect=0;targetShapes=umlLifeline;portConstraint=eastwest;newEdgeStyle={&quot;curved&quot;:0,&quot;rounded&quot;:0};" vertex="1" parent="1">
          <mxGeometry x="575" y="210" width="10" height="630" as="geometry" />
        </mxCell>
        <mxCell id="KKl_57p_AOMN9bFQtjyA-17" value="" style="endArrow=block;endFill=1;endSize=12;html=1;rounded=0;" edge="1" parent="1" target="KKl_57p_AOMN9bFQtjyA-8">
          <mxGeometry width="160" relative="1" as="geometry">
            <mxPoint x="275" y="260" as="sourcePoint" />
            <mxPoint x="452.3499999999999" y="260" as="targetPoint" />
          </mxGeometry>
        </mxCell>
        <mxCell id="KKl_57p_AOMN9bFQtjyA-18" value="ObtenerLista(fecha):reserva" style="edgeLabel;html=1;align=center;verticalAlign=middle;resizable=0;points=[];" vertex="1" connectable="0" parent="KKl_57p_AOMN9bFQtjyA-17">
          <mxGeometry x="-0.025" y="7" relative="1" as="geometry">
            <mxPoint y="-3" as="offset" />
          </mxGeometry>
        </mxCell>
        <mxCell id="KKl_57p_AOMN9bFQtjyA-19" value="Lista de reservas del día" style="endArrow=open;endSize=12;dashed=1;html=1;rounded=0;" edge="1" parent="1" source="KKl_57p_AOMN9bFQtjyA-8">
          <mxGeometry x="0.0619" y="-10" width="160" relative="1" as="geometry">
            <mxPoint x="452.3499999999999" y="290" as="sourcePoint" />
            <mxPoint x="275" y="290" as="targetPoint" />
            <mxPoint as="offset" />
          </mxGeometry>
        </mxCell>
        <mxCell id="KKl_57p_AOMN9bFQtjyA-20" value="" style="endArrow=block;endFill=1;endSize=12;html=1;rounded=0;" edge="1" parent="1" target="KKl_57p_AOMN9bFQtjyA-8">
          <mxGeometry width="160" relative="1" as="geometry">
            <mxPoint x="275" y="350" as="sourcePoint" />
            <mxPoint x="540" y="350" as="targetPoint" />
          </mxGeometry>
        </mxCell>
        <mxCell id="KKl_57p_AOMN9bFQtjyA-21" value="ObtenerPorId(Id):reserva" style="edgeLabel;html=1;align=center;verticalAlign=middle;resizable=0;points=[];" vertex="1" connectable="0" parent="KKl_57p_AOMN9bFQtjyA-20">
          <mxGeometry x="-0.025" y="7" relative="1" as="geometry">
            <mxPoint x="-2" y="-3" as="offset" />
          </mxGeometry>
        </mxCell>
        <mxCell id="KKl_57p_AOMN9bFQtjyA-22" value="detalle Reserva" style="endArrow=open;endSize=12;dashed=1;html=1;rounded=0;" edge="1" parent="1">
          <mxGeometry x="-0.0097" y="-11" width="160" relative="1" as="geometry">
            <mxPoint x="570" y="375" as="sourcePoint" />
            <mxPoint x="275" y="373" as="targetPoint" />
            <mxPoint as="offset" />
          </mxGeometry>
        </mxCell>
        <mxCell id="KKl_57p_AOMN9bFQtjyA-26" value="" style="shape=umlBoundary;whiteSpace=wrap;html=1;rotation=-90;" vertex="1" parent="1">
          <mxGeometry x="560" y="120" width="40" height="40" as="geometry" />
        </mxCell>
        <mxCell id="KKl_57p_AOMN9bFQtjyA-29" value="" style="endArrow=block;endFill=1;endSize=12;html=1;rounded=0;" edge="1" parent="1">
          <mxGeometry width="160" relative="1" as="geometry">
            <mxPoint x="275" y="440" as="sourcePoint" />
            <mxPoint x="575" y="440" as="targetPoint" />
          </mxGeometry>
        </mxCell>
        <mxCell id="KKl_57p_AOMN9bFQtjyA-30" value="IngresarPagoAdicional(monto):bool" style="edgeLabel;html=1;align=center;verticalAlign=middle;resizable=0;points=[];" vertex="1" connectable="0" parent="KKl_57p_AOMN9bFQtjyA-29">
          <mxGeometry x="-0.025" y="7" relative="1" as="geometry">
            <mxPoint y="-3" as="offset" />
          </mxGeometry>
        </mxCell>
        <mxCell id="KKl_57p_AOMN9bFQtjyA-34" value="validarMonto(montoTotal,montoPagado,nuevoPago,tipoPago)" style="html=1;align=left;spacingLeft=2;endArrow=block;rounded=0;edgeStyle=orthogonalEdgeStyle;curved=0;rounded=0;" edge="1" parent="1">
          <mxGeometry x="-0.0123" relative="1" as="geometry">
            <mxPoint x="585" y="479.9988235294117" as="sourcePoint" />
            <Array as="points">
              <mxPoint x="615" y="479.94" />
              <mxPoint x="615" y="496.94" />
            </Array>
            <mxPoint x="585" y="496.94" as="targetPoint" />
            <mxPoint as="offset" />
          </mxGeometry>
        </mxCell>
        <mxCell id="KKl_57p_AOMN9bFQtjyA-35" value="* Si tipoPago=parcial =&amp;gt; 0 &amp;lt; montoPagado &amp;lt;montoTotal" style="shape=note2;boundedLbl=1;whiteSpace=wrap;html=1;size=25;verticalAlign=top;align=left;spacingLeft=5;" vertex="1" parent="1">
          <mxGeometry x="920" y="555" width="360" height="60" as="geometry" />
        </mxCell>
        <mxCell id="KKl_57p_AOMN9bFQtjyA-36" value="Reglas&lt;div&gt;* Si tipoPago=completo =&amp;gt; montoPagado==montoTotal&amp;nbsp;&lt;/div&gt;" style="resizeWidth=1;part=1;strokeColor=none;fillColor=none;align=left;spacingLeft=5;whiteSpace=wrap;html=1;" vertex="1" parent="KKl_57p_AOMN9bFQtjyA-35">
          <mxGeometry width="565.7142857142858" height="25" relative="1" as="geometry" />
        </mxCell>
        <mxCell id="KKl_57p_AOMN9bFQtjyA-37" value="alt" style="shape=umlFrame;whiteSpace=wrap;html=1;pointerEvents=0;width=30;height=30;" vertex="1" parent="1">
          <mxGeometry x="217.65" y="557" width="692.35" height="293" as="geometry" />
        </mxCell>
        <mxCell id="KKl_57p_AOMN9bFQtjyA-38" value="&lt;b&gt;&lt;font style=&quot;font-size: 8px;&quot;&gt;[Monto Valido]&lt;/font&gt;&lt;/b&gt;" style="text;html=1;align=center;verticalAlign=middle;resizable=0;points=[];autosize=1;strokeColor=none;fillColor=none;" vertex="1" parent="1">
          <mxGeometry x="270" y="553" width="80" height="30" as="geometry" />
        </mxCell>
        <mxCell id="KKl_57p_AOMN9bFQtjyA-39" value="calcularSaldo(montototal,montoPagado)" style="html=1;align=left;spacingLeft=2;endArrow=block;rounded=0;edgeStyle=orthogonalEdgeStyle;curved=0;rounded=0;" edge="1" parent="1">
          <mxGeometry x="-0.001" relative="1" as="geometry">
            <mxPoint x="585" y="617" as="sourcePoint" />
            <Array as="points">
              <mxPoint x="615" y="617" />
              <mxPoint x="615" y="634" />
            </Array>
            <mxPoint x="585" y="634" as="targetPoint" />
            <mxPoint as="offset" />
          </mxGeometry>
        </mxCell>
        <mxCell id="KKl_57p_AOMN9bFQtjyA-40" value="determinarEstado(tipoPago,saldo)" style="html=1;align=left;spacingLeft=2;endArrow=block;rounded=0;edgeStyle=orthogonalEdgeStyle;curved=0;rounded=0;" edge="1" parent="1">
          <mxGeometry x="-0.001" relative="1" as="geometry">
            <mxPoint x="585" y="648.4822222222224" as="sourcePoint" />
            <Array as="points">
              <mxPoint x="620" y="648.46" />
              <mxPoint x="620" y="665.46" />
            </Array>
            <mxPoint x="585" y="665.46" as="targetPoint" />
            <mxPoint as="offset" />
          </mxGeometry>
        </mxCell>
        <mxCell id="KKl_57p_AOMN9bFQtjyA-41" value="&lt;div&gt;&lt;span style=&quot;background-color: transparent; color: light-dark(rgb(0, 0, 0), rgb(255, 255, 255));&quot;&gt;* Si saldo==0&amp;nbsp; -&amp;gt; &quot;pago completo&quot;&amp;nbsp;&lt;/span&gt;&lt;/div&gt;" style="shape=note2;boundedLbl=1;whiteSpace=wrap;html=1;size=25;verticalAlign=top;align=left;spacingLeft=5;" vertex="1" parent="1">
          <mxGeometry x="827" y="615" width="197.35" height="60" as="geometry" />
        </mxCell>
        <mxCell id="KKl_57p_AOMN9bFQtjyA-42" value="&lt;br&gt;&lt;div&gt;* Si saldo&amp;gt;0 -&amp;gt; &quot;pago parcial&quot;&amp;nbsp;&lt;/div&gt;" style="resizeWidth=1;part=1;strokeColor=none;fillColor=none;align=left;spacingLeft=5;whiteSpace=wrap;html=1;" vertex="1" parent="KKl_57p_AOMN9bFQtjyA-41">
          <mxGeometry width="310.1214285714286" height="25" relative="1" as="geometry" />
        </mxCell>
        <mxCell id="KKl_57p_AOMN9bFQtjyA-44" value="confirmación" style="endArrow=open;endSize=12;dashed=1;html=1;rounded=0;" edge="1" parent="1">
          <mxGeometry x="0.0619" y="-10" width="160" relative="1" as="geometry">
            <mxPoint x="575" y="729.9999999999998" as="sourcePoint" />
            <mxPoint x="275" y="729.9999999999998" as="targetPoint" />
            <mxPoint as="offset" />
            <Array as="points">
              <mxPoint x="520" y="730" />
            </Array>
          </mxGeometry>
        </mxCell>
        <mxCell id="KKl_57p_AOMN9bFQtjyA-45" value="&lt;span style=&quot;font-size: 8px;&quot;&gt;&lt;b&gt;[Monto invalido]&lt;/b&gt;&lt;/span&gt;" style="text;html=1;align=center;verticalAlign=middle;resizable=0;points=[];autosize=1;strokeColor=none;fillColor=none;" vertex="1" parent="1">
          <mxGeometry x="270" y="750" width="90" height="30" as="geometry" />
        </mxCell>
        <mxCell id="KKl_57p_AOMN9bFQtjyA-46" value="" style="endArrow=none;endFill=1;endSize=12;html=1;rounded=0;exitX=-0.004;exitY=0.734;exitDx=0;exitDy=0;exitPerimeter=0;startFill=0;dashed=1;entryX=1.004;entryY=0.651;entryDx=0;entryDy=0;entryPerimeter=0;" edge="1" parent="1" target="KKl_57p_AOMN9bFQtjyA-37">
          <mxGeometry width="160" relative="1" as="geometry">
            <mxPoint x="217.65" y="750" as="sourcePoint" />
            <mxPoint x="840" y="750" as="targetPoint" />
          </mxGeometry>
        </mxCell>
        <mxCell id="KKl_57p_AOMN9bFQtjyA-47" value="Error(&quot;Pago excede saldo&quot;)" style="endArrow=open;endSize=12;dashed=1;html=1;rounded=0;" edge="1" parent="1">
          <mxGeometry x="0.0619" y="-10" width="160" relative="1" as="geometry">
            <mxPoint x="575" y="810" as="sourcePoint" />
            <mxPoint x="275" y="810" as="targetPoint" />
            <mxPoint as="offset" />
            <Array as="points">
              <mxPoint x="520" y="810" />
            </Array>
          </mxGeometry>
        </mxCell>
        <mxCell id="KKl_57p_AOMN9bFQtjyA-48" value="" style="shape=umlBoundary;whiteSpace=wrap;html=1;" vertex="1" parent="1">
          <mxGeometry x="245.00000000000003" y="120" width="50" height="40" as="geometry" />
        </mxCell>
        <mxCell id="N6ZvtmzXulQs0cJ8csre-1" value="bool" style="endArrow=open;endSize=12;dashed=1;html=1;rounded=0;" edge="1" parent="1">
          <mxGeometry x="-0.0097" y="-11" width="160" relative="1" as="geometry">
            <mxPoint x="575" y="520" as="sourcePoint" />
            <mxPoint x="275" y="520" as="targetPoint" />
            <mxPoint as="offset" />
          </mxGeometry>
        </mxCell>
        <mxCell id="N6ZvtmzXulQs0cJ8csre-2" value="RegistrarPagoAdicional(monto)" style="html=1;align=left;spacingLeft=2;endArrow=block;rounded=0;edgeStyle=orthogonalEdgeStyle;curved=0;rounded=0;" edge="1" parent="1">
          <mxGeometry x="-0.0043" relative="1" as="geometry">
            <mxPoint x="585" y="585" as="sourcePoint" />
            <Array as="points">
              <mxPoint x="615" y="585" />
              <mxPoint x="615" y="602" />
            </Array>
            <mxPoint x="585" y="602" as="targetPoint" />
            <mxPoint as="offset" />
          </mxGeometry>
        </mxCell>
        <mxCell id="N6ZvtmzXulQs0cJ8csre-3" value="" style="endArrow=block;endFill=1;endSize=12;html=1;rounded=0;" edge="1" parent="1">
          <mxGeometry width="160" relative="1" as="geometry">
            <mxPoint x="275" y="703.08" as="sourcePoint" />
            <mxPoint x="575" y="703.08" as="targetPoint" />
          </mxGeometry>
        </mxCell>
        <mxCell id="N6ZvtmzXulQs0cJ8csre-4" value="guardar(reserva)" style="edgeLabel;html=1;align=center;verticalAlign=middle;resizable=0;points=[];" vertex="1" connectable="0" parent="N6ZvtmzXulQs0cJ8csre-3">
          <mxGeometry x="-0.025" y="7" relative="1" as="geometry">
            <mxPoint y="-3" as="offset" />
          </mxGeometry>
        </mxCell>
      </root>
    </mxGraphModel>
  </diagram>
</mxfile>
